M48
;DRILL file {KiCad 4.0.2+dfsg1-stable} date sob, 21 kwi 2018, 12:47:50
;FORMAT={-:-/ absolute / metric / decimal}
FMAT,2
METRIC,TZ
T1C0.400
T2C0.599
T3C0.701
T4C0.800
T5C0.800
T6C0.900
T7C1.000
T8C1.001
T9C1.016
T10C1.500
T11C1.801
T12C3.000
%
G90
G05
M71
T1
X111.2Y-98.15
X111.2Y-104.7
T2
X130.65Y-50.201
X130.65Y-51.699
T3
X125.601Y-70.597
X125.651Y-74.247
X135.761Y-70.597
X135.811Y-74.247
T4
X88.82Y-73.6
X91.25Y-63.2
X91.3Y-67.6
X91.36Y-73.6
X91.5Y-79.3
X91.6Y-84.7
X93.8Y-67.6
X93.9Y-73.6
X94.1Y-84.7
X94.36Y-96.12
X94.41Y-91.37
X99.15Y-74.1
X99.15Y-76.1
X102.49Y-58.79
X105.03Y-58.79
X107.57Y-58.79
X108.332Y-65.02
X108.332Y-67.56
X108.332Y-70.1
X108.332Y-72.64
X108.332Y-75.18
X108.332Y-77.72
X108.332Y-80.26
X108.332Y-82.8
X108.332Y-85.34
X108.332Y-87.88
X108.332Y-90.42
X108.332Y-92.96
X108.332Y-95.5
X108.332Y-98.04
X115.952Y-65.02
X115.952Y-67.56
X115.952Y-70.1
X115.952Y-72.64
X115.952Y-75.18
X115.952Y-77.72
X115.952Y-80.26
X115.952Y-82.8
X115.952Y-85.34
X115.952Y-87.88
X115.952Y-90.42
X115.952Y-92.96
X115.952Y-95.5
X115.952Y-98.04
X124.13Y-53.85
X124.13Y-61.47
X126.67Y-53.85
X126.67Y-61.47
X129.21Y-53.85
X129.21Y-61.47
X131.75Y-53.85
X131.75Y-61.47
X134.45Y-78.32
X134.45Y-80.32
X140.29Y-93.58
X140.29Y-97.38
T5
X93.75Y-63.2
X94.Y-79.3
X96.86Y-96.12
X96.91Y-91.37
X102.49Y-90.939
X102.49Y-95.821
T6
X103.03Y-79.15
X103.03Y-84.15
X119.76Y-82.85
X121.27Y-75.3
X121.27Y-80.3
X124.76Y-82.85
T7
X123.7Y-94.14
X123.7Y-96.68
X126.24Y-94.14
X126.24Y-96.68
X128.78Y-94.14
X128.78Y-96.68
X131.32Y-94.14
X131.32Y-96.68
T8
X103.8Y-64.115
X103.8Y-74.275
X111.75Y-48.65
X111.75Y-58.81
X116.25Y-48.85
X116.25Y-59.01
X122.98Y-67.35
X130.6Y-67.35
X148.19Y-83.6
X158.35Y-83.6
T9
X135.6Y-64.
X135.6Y-66.54
X150.74Y-92.3
X153.28Y-92.3
X155.82Y-92.3
X158.36Y-92.3
T10
X149.8Y-52.71
X149.8Y-73.2
T11
X90.581Y-55.
X94.518Y-55.
T12
X89.55Y-102.1
X89.65Y-44.95
X163.7Y-44.95
X163.85Y-101.85
T0
M30
