G04 #@! TF.FileFunction,Soldermask,Bot*
%FSLAX46Y46*%
G04 Gerber Fmt 4.6, Leading zero omitted, Abs format (unit mm)*
G04 Created by KiCad (PCBNEW 4.0.2+dfsg1-stable) date sob, 21 kwi 2018, 12:47:44*
%MOMM*%
G01*
G04 APERTURE LIST*
%ADD10C,0.500000*%
%ADD11R,1.700000X1.700000*%
%ADD12C,1.700000*%
%ADD13R,1.800000X1.800000*%
%ADD14C,1.800000*%
%ADD15O,2.000000X2.000000*%
%ADD16C,2.398980*%
%ADD17C,1.901140*%
%ADD18C,1.924000*%
%ADD19R,2.899360X2.899360*%
%ADD20R,2.100000X2.100000*%
%ADD21O,2.100000X2.100000*%
%ADD22C,3.400000*%
%ADD23R,3.400000X3.400000*%
%ADD24C,2.099260*%
%ADD25R,2.099260X2.099260*%
%ADD26C,1.400760*%
%ADD27R,2.127200X2.432000*%
%ADD28O,2.127200X2.432000*%
%ADD29R,2.432000X2.432000*%
%ADD30O,2.432000X2.432000*%
G04 APERTURE END LIST*
D10*
D11*
X94360000Y-96120000D03*
D12*
X96860000Y-96120000D03*
D13*
X119760000Y-82850000D03*
D14*
X124760000Y-82850000D03*
D11*
X94410000Y-91370000D03*
D12*
X96910000Y-91370000D03*
D13*
X121270000Y-75300000D03*
D14*
X121270000Y-80300000D03*
D13*
X103030000Y-79150000D03*
D14*
X103030000Y-84150000D03*
D15*
X108332143Y-65020000D03*
X108332143Y-67560000D03*
X108332143Y-70100000D03*
X108332143Y-72640000D03*
X108332143Y-75180000D03*
X108332143Y-77720000D03*
X108332143Y-80260000D03*
X108332143Y-82800000D03*
X108332143Y-85340000D03*
X108332143Y-87880000D03*
X108332143Y-90420000D03*
X108332143Y-92960000D03*
X108332143Y-95500000D03*
X108332143Y-98040000D03*
X115952143Y-98040000D03*
X115952143Y-95500000D03*
X115952143Y-92960000D03*
X115952143Y-90420000D03*
X115952143Y-87880000D03*
X115952143Y-85340000D03*
X115952143Y-82800000D03*
X115952143Y-80260000D03*
X115952143Y-77720000D03*
X115952143Y-75180000D03*
X115952143Y-72640000D03*
X115952143Y-70100000D03*
X115952143Y-67560000D03*
X115952143Y-65020000D03*
D16*
X103800000Y-74275000D03*
X103800000Y-64115000D03*
D17*
X102490000Y-90939060D03*
X102490000Y-95820940D03*
D18*
X105030000Y-58790000D03*
X107570000Y-58790000D03*
X102490000Y-58790000D03*
D11*
X140290000Y-97380000D03*
D12*
X140290000Y-93580000D03*
D19*
X90581500Y-55000000D03*
X94518500Y-55000000D03*
D20*
X131320000Y-94140000D03*
D21*
X131320000Y-96680000D03*
X128780000Y-96680000D03*
X128780000Y-94140000D03*
X126240000Y-96680000D03*
X126240000Y-94140000D03*
X123700000Y-96680000D03*
X123700000Y-94140000D03*
D11*
X99150000Y-74100000D03*
D12*
X99150000Y-76100000D03*
D11*
X134450000Y-78320000D03*
D12*
X134450000Y-80320000D03*
D22*
X149800000Y-52710000D03*
D23*
X149800000Y-73200000D03*
D24*
X135760520Y-70597460D03*
D25*
X125600520Y-70597460D03*
D24*
X135810520Y-74247460D03*
D25*
X125650520Y-74247460D03*
D16*
X111750000Y-48650000D03*
X111750000Y-58810000D03*
X116250000Y-48850000D03*
X116250000Y-59010000D03*
D15*
X131750000Y-53850000D03*
X129210000Y-53850000D03*
X126670000Y-53850000D03*
X124130000Y-53850000D03*
X124130000Y-61470000D03*
X126670000Y-61470000D03*
X129210000Y-61470000D03*
X131750000Y-61470000D03*
D26*
X130650000Y-51699300D03*
X130650000Y-50200700D03*
D16*
X158350000Y-83600000D03*
X148190000Y-83600000D03*
D27*
X158360000Y-92300000D03*
D28*
X155820000Y-92300000D03*
X153280000Y-92300000D03*
X150740000Y-92300000D03*
D16*
X130600000Y-67350000D03*
X122980000Y-67350000D03*
D29*
X135600000Y-64000000D03*
D30*
X135600000Y-66540000D03*
D11*
X91250000Y-63200000D03*
D12*
X93750000Y-63200000D03*
D11*
X91300000Y-67600000D03*
D12*
X93800000Y-67600000D03*
D11*
X91600000Y-84700000D03*
D12*
X94100000Y-84700000D03*
D11*
X91500000Y-79300000D03*
D12*
X94000000Y-79300000D03*
D18*
X91360000Y-73600000D03*
X88820000Y-73600000D03*
X93900000Y-73600000D03*
M02*
