G75*
%MOIN*%
%OFA0B0*%
%FSLAX25Y25*%
%IPPOS*%
%LPD*%
%AMOC8*
5,1,8,0,0,1.08239X$1,22.5*
%
%ADD10OC8,0.06000*%
%ADD11C,0.07400*%
%ADD12OC8,0.05200*%
%ADD13C,0.05200*%
%ADD14C,0.01600*%
%ADD15C,0.03962*%
D10*
X0021576Y0027550D03*
X0021576Y0037550D03*
X0031576Y0037550D03*
X0031576Y0027550D03*
X0041576Y0027550D03*
X0041576Y0037550D03*
X0051576Y0037550D03*
X0051576Y0027550D03*
D11*
X0006576Y0007550D03*
X0006576Y0017550D03*
X0006576Y0027550D03*
X0006576Y0037550D03*
X0006576Y0047550D03*
X0006576Y0057550D03*
X0006576Y0067550D03*
X0006576Y0077550D03*
X0006576Y0087550D03*
X0051576Y0077550D03*
X0051576Y0017550D03*
X0051576Y0007550D03*
D12*
X0036576Y0007300D03*
X0027201Y0015050D03*
X0022201Y0007550D03*
X0017201Y0015050D03*
D13*
X0036576Y0015300D03*
D14*
X0031576Y0027550D02*
X0051576Y0007550D01*
X0051576Y0027550D02*
X0046576Y0032550D01*
X0046576Y0047550D01*
X0041576Y0052550D01*
X0036576Y0042550D02*
X0031576Y0047550D01*
X0031576Y0057550D01*
X0026576Y0067550D02*
X0006576Y0087550D01*
X0026576Y0067550D02*
X0026576Y0023800D01*
X0017201Y0015050D01*
X0006576Y0027550D02*
X0014701Y0035675D01*
X0014701Y0045675D01*
X0021576Y0052550D01*
X0036576Y0042550D02*
X0036576Y0032550D01*
X0031576Y0027550D01*
D15*
X0041576Y0052550D03*
X0031576Y0057550D03*
X0021576Y0052550D03*
M02*
