G75*
%MOIN*%
%OFA0B0*%
%FSLAX25Y25*%
%IPPOS*%
%LPD*%
%AMOC8*
5,1,8,0,0,1.08239X$1,22.5*
%
%ADD10C,0.00800*%
%ADD11C,0.00600*%
D10*
X0004076Y0002550D02*
X0001576Y0005050D01*
X0001576Y0010050D01*
X0004076Y0012550D01*
X0001576Y0015050D01*
X0001576Y0020050D01*
X0004076Y0022550D01*
X0001576Y0025050D01*
X0001576Y0030050D01*
X0004076Y0032550D01*
X0001576Y0035050D01*
X0001576Y0040050D01*
X0004076Y0042550D01*
X0001576Y0045050D01*
X0001576Y0050050D01*
X0004076Y0052550D01*
X0001576Y0055050D01*
X0001576Y0060050D01*
X0004076Y0062550D01*
X0001576Y0065050D01*
X0001576Y0070050D01*
X0004076Y0072550D01*
X0001576Y0075050D01*
X0001576Y0080050D01*
X0004076Y0082550D01*
X0001576Y0085050D01*
X0001576Y0090050D01*
X0004076Y0092550D01*
X0009076Y0092550D01*
X0011576Y0090050D01*
X0011576Y0085050D01*
X0009076Y0082550D01*
X0011576Y0080050D01*
X0011576Y0075050D01*
X0009076Y0072550D01*
X0011576Y0070050D01*
X0011576Y0065050D01*
X0009076Y0062550D01*
X0011576Y0060050D01*
X0011576Y0055050D01*
X0009076Y0052550D01*
X0011576Y0050050D01*
X0011576Y0045050D01*
X0009076Y0042550D01*
X0011576Y0040050D01*
X0011576Y0035050D01*
X0009076Y0032550D01*
X0011576Y0030050D01*
X0011576Y0025050D01*
X0009076Y0022550D01*
X0011576Y0020050D01*
X0011576Y0015050D01*
X0009076Y0012550D01*
X0011576Y0010050D01*
X0011576Y0005050D01*
X0009076Y0002550D01*
X0004076Y0002550D01*
D11*
X0028576Y0015300D02*
X0030576Y0015300D01*
X0029576Y0016300D02*
X0029576Y0014300D01*
X0026576Y0011300D02*
X0026579Y0011545D01*
X0026588Y0011791D01*
X0026603Y0012036D01*
X0026624Y0012280D01*
X0026651Y0012524D01*
X0026684Y0012767D01*
X0026723Y0013010D01*
X0026768Y0013251D01*
X0026819Y0013491D01*
X0026876Y0013730D01*
X0026938Y0013967D01*
X0027007Y0014203D01*
X0027081Y0014437D01*
X0027161Y0014669D01*
X0027246Y0014899D01*
X0027337Y0015127D01*
X0027434Y0015352D01*
X0027536Y0015576D01*
X0027644Y0015796D01*
X0027757Y0016014D01*
X0027875Y0016229D01*
X0027999Y0016441D01*
X0028127Y0016650D01*
X0028261Y0016856D01*
X0028400Y0017058D01*
X0028544Y0017257D01*
X0028693Y0017452D01*
X0028846Y0017644D01*
X0029004Y0017832D01*
X0029166Y0018016D01*
X0029334Y0018195D01*
X0029505Y0018371D01*
X0029681Y0018542D01*
X0029860Y0018710D01*
X0030044Y0018872D01*
X0030232Y0019030D01*
X0030424Y0019183D01*
X0030619Y0019332D01*
X0030818Y0019476D01*
X0031020Y0019615D01*
X0031226Y0019749D01*
X0031435Y0019877D01*
X0031647Y0020001D01*
X0031862Y0020119D01*
X0032080Y0020232D01*
X0032300Y0020340D01*
X0032524Y0020442D01*
X0032749Y0020539D01*
X0032977Y0020630D01*
X0033207Y0020715D01*
X0033439Y0020795D01*
X0033673Y0020869D01*
X0033909Y0020938D01*
X0034146Y0021000D01*
X0034385Y0021057D01*
X0034625Y0021108D01*
X0034866Y0021153D01*
X0035109Y0021192D01*
X0035352Y0021225D01*
X0035596Y0021252D01*
X0035840Y0021273D01*
X0036085Y0021288D01*
X0036331Y0021297D01*
X0036576Y0021300D01*
X0036821Y0021297D01*
X0037067Y0021288D01*
X0037312Y0021273D01*
X0037556Y0021252D01*
X0037800Y0021225D01*
X0038043Y0021192D01*
X0038286Y0021153D01*
X0038527Y0021108D01*
X0038767Y0021057D01*
X0039006Y0021000D01*
X0039243Y0020938D01*
X0039479Y0020869D01*
X0039713Y0020795D01*
X0039945Y0020715D01*
X0040175Y0020630D01*
X0040403Y0020539D01*
X0040628Y0020442D01*
X0040852Y0020340D01*
X0041072Y0020232D01*
X0041290Y0020119D01*
X0041505Y0020001D01*
X0041717Y0019877D01*
X0041926Y0019749D01*
X0042132Y0019615D01*
X0042334Y0019476D01*
X0042533Y0019332D01*
X0042728Y0019183D01*
X0042920Y0019030D01*
X0043108Y0018872D01*
X0043292Y0018710D01*
X0043471Y0018542D01*
X0043647Y0018371D01*
X0043818Y0018195D01*
X0043986Y0018016D01*
X0044148Y0017832D01*
X0044306Y0017644D01*
X0044459Y0017452D01*
X0044608Y0017257D01*
X0044752Y0017058D01*
X0044891Y0016856D01*
X0045025Y0016650D01*
X0045153Y0016441D01*
X0045277Y0016229D01*
X0045395Y0016014D01*
X0045508Y0015796D01*
X0045616Y0015576D01*
X0045718Y0015352D01*
X0045815Y0015127D01*
X0045906Y0014899D01*
X0045991Y0014669D01*
X0046071Y0014437D01*
X0046145Y0014203D01*
X0046214Y0013967D01*
X0046276Y0013730D01*
X0046333Y0013491D01*
X0046384Y0013251D01*
X0046429Y0013010D01*
X0046468Y0012767D01*
X0046501Y0012524D01*
X0046528Y0012280D01*
X0046549Y0012036D01*
X0046564Y0011791D01*
X0046573Y0011545D01*
X0046576Y0011300D01*
X0046573Y0011055D01*
X0046564Y0010809D01*
X0046549Y0010564D01*
X0046528Y0010320D01*
X0046501Y0010076D01*
X0046468Y0009833D01*
X0046429Y0009590D01*
X0046384Y0009349D01*
X0046333Y0009109D01*
X0046276Y0008870D01*
X0046214Y0008633D01*
X0046145Y0008397D01*
X0046071Y0008163D01*
X0045991Y0007931D01*
X0045906Y0007701D01*
X0045815Y0007473D01*
X0045718Y0007248D01*
X0045616Y0007024D01*
X0045508Y0006804D01*
X0045395Y0006586D01*
X0045277Y0006371D01*
X0045153Y0006159D01*
X0045025Y0005950D01*
X0044891Y0005744D01*
X0044752Y0005542D01*
X0044608Y0005343D01*
X0044459Y0005148D01*
X0044306Y0004956D01*
X0044148Y0004768D01*
X0043986Y0004584D01*
X0043818Y0004405D01*
X0043647Y0004229D01*
X0043471Y0004058D01*
X0043292Y0003890D01*
X0043108Y0003728D01*
X0042920Y0003570D01*
X0042728Y0003417D01*
X0042533Y0003268D01*
X0042334Y0003124D01*
X0042132Y0002985D01*
X0041926Y0002851D01*
X0041717Y0002723D01*
X0041505Y0002599D01*
X0041290Y0002481D01*
X0041072Y0002368D01*
X0040852Y0002260D01*
X0040628Y0002158D01*
X0040403Y0002061D01*
X0040175Y0001970D01*
X0039945Y0001885D01*
X0039713Y0001805D01*
X0039479Y0001731D01*
X0039243Y0001662D01*
X0039006Y0001600D01*
X0038767Y0001543D01*
X0038527Y0001492D01*
X0038286Y0001447D01*
X0038043Y0001408D01*
X0037800Y0001375D01*
X0037556Y0001348D01*
X0037312Y0001327D01*
X0037067Y0001312D01*
X0036821Y0001303D01*
X0036576Y0001300D01*
X0036331Y0001303D01*
X0036085Y0001312D01*
X0035840Y0001327D01*
X0035596Y0001348D01*
X0035352Y0001375D01*
X0035109Y0001408D01*
X0034866Y0001447D01*
X0034625Y0001492D01*
X0034385Y0001543D01*
X0034146Y0001600D01*
X0033909Y0001662D01*
X0033673Y0001731D01*
X0033439Y0001805D01*
X0033207Y0001885D01*
X0032977Y0001970D01*
X0032749Y0002061D01*
X0032524Y0002158D01*
X0032300Y0002260D01*
X0032080Y0002368D01*
X0031862Y0002481D01*
X0031647Y0002599D01*
X0031435Y0002723D01*
X0031226Y0002851D01*
X0031020Y0002985D01*
X0030818Y0003124D01*
X0030619Y0003268D01*
X0030424Y0003417D01*
X0030232Y0003570D01*
X0030044Y0003728D01*
X0029860Y0003890D01*
X0029681Y0004058D01*
X0029505Y0004229D01*
X0029334Y0004405D01*
X0029166Y0004584D01*
X0029004Y0004768D01*
X0028846Y0004956D01*
X0028693Y0005148D01*
X0028544Y0005343D01*
X0028400Y0005542D01*
X0028261Y0005744D01*
X0028127Y0005950D01*
X0027999Y0006159D01*
X0027875Y0006371D01*
X0027757Y0006586D01*
X0027644Y0006804D01*
X0027536Y0007024D01*
X0027434Y0007248D01*
X0027337Y0007473D01*
X0027246Y0007701D01*
X0027161Y0007931D01*
X0027081Y0008163D01*
X0027007Y0008397D01*
X0026938Y0008633D01*
X0026876Y0008870D01*
X0026819Y0009109D01*
X0026768Y0009349D01*
X0026723Y0009590D01*
X0026684Y0009833D01*
X0026651Y0010076D01*
X0026624Y0010320D01*
X0026603Y0010564D01*
X0026588Y0010809D01*
X0026579Y0011055D01*
X0026576Y0011300D01*
M02*
