G75*
%MOIN*%
%OFA0B0*%
%FSLAX25Y25*%
%IPPOS*%
%LPD*%
%AMOC8*
5,1,8,0,0,1.08239X$1,22.5*
%
%ADD10C,0.00600*%
%ADD11C,0.00800*%
%ADD12C,0.00070*%
%ADD13C,0.00700*%
D10*
X0019076Y0022550D02*
X0016576Y0025050D01*
X0016576Y0040050D01*
X0019076Y0042550D01*
X0024076Y0042550D01*
X0026576Y0040050D01*
X0026576Y0025050D01*
X0024076Y0022550D01*
X0019076Y0022550D01*
X0026576Y0025050D02*
X0029076Y0022550D01*
X0034076Y0022550D01*
X0036576Y0025050D01*
X0036576Y0040050D01*
X0034076Y0042550D01*
X0029076Y0042550D01*
X0026576Y0040050D01*
X0036576Y0040050D02*
X0039076Y0042550D01*
X0044076Y0042550D01*
X0046576Y0040050D01*
X0046576Y0025050D01*
X0044076Y0022550D01*
X0039076Y0022550D01*
X0036576Y0025050D01*
X0046576Y0025050D02*
X0049076Y0022550D01*
X0054076Y0022550D01*
X0056576Y0025050D01*
X0056576Y0040050D01*
X0054076Y0042550D01*
X0049076Y0042550D01*
X0046576Y0040050D01*
D11*
X0049076Y0022550D02*
X0054076Y0022550D01*
X0056576Y0020050D01*
X0056576Y0015050D01*
X0054076Y0012550D01*
X0056576Y0010050D01*
X0056576Y0005050D01*
X0054076Y0002550D01*
X0049076Y0002550D01*
X0046576Y0005050D01*
X0046576Y0010050D01*
X0049076Y0012550D01*
X0046576Y0015050D01*
X0046576Y0020050D01*
X0049076Y0022550D01*
X0049076Y0072550D02*
X0054076Y0072550D01*
X0056576Y0075050D01*
X0056576Y0080050D01*
X0054076Y0082550D01*
X0049076Y0082550D01*
X0046576Y0080050D01*
X0046576Y0075050D01*
X0049076Y0072550D01*
D12*
X0025422Y0004727D02*
X0025237Y0005329D01*
X0025237Y0005328D02*
X0025474Y0005405D01*
X0025709Y0005488D01*
X0025942Y0005577D01*
X0026172Y0005671D01*
X0026400Y0005771D01*
X0026626Y0005877D01*
X0026849Y0005987D01*
X0027069Y0006104D01*
X0027287Y0006226D01*
X0027501Y0006353D01*
X0027712Y0006485D01*
X0027920Y0006622D01*
X0028124Y0006765D01*
X0028325Y0006912D01*
X0028522Y0007064D01*
X0028716Y0007221D01*
X0028905Y0007383D01*
X0029091Y0007549D01*
X0029272Y0007720D01*
X0029449Y0007895D01*
X0029622Y0008074D01*
X0029790Y0008258D01*
X0029954Y0008445D01*
X0030114Y0008637D01*
X0030268Y0008832D01*
X0030418Y0009032D01*
X0030562Y0009234D01*
X0030702Y0009441D01*
X0030837Y0009650D01*
X0030966Y0009863D01*
X0031090Y0010079D01*
X0031209Y0010298D01*
X0031323Y0010519D01*
X0031431Y0010744D01*
X0031533Y0010971D01*
X0031630Y0011200D01*
X0031722Y0011432D01*
X0031807Y0011666D01*
X0031887Y0011902D01*
X0031961Y0012140D01*
X0032030Y0012379D01*
X0032092Y0012620D01*
X0032148Y0012863D01*
X0032199Y0013107D01*
X0032243Y0013352D01*
X0032282Y0013598D01*
X0032314Y0013845D01*
X0032341Y0014093D01*
X0032361Y0014341D01*
X0032376Y0014590D01*
X0032384Y0014839D01*
X0032386Y0015088D01*
X0032382Y0015337D01*
X0032372Y0015586D01*
X0032356Y0015834D01*
X0032334Y0016082D01*
X0032305Y0016330D01*
X0032271Y0016577D01*
X0032231Y0016822D01*
X0032184Y0017067D01*
X0032132Y0017311D01*
X0032074Y0017553D01*
X0032009Y0017794D01*
X0031939Y0018033D01*
X0031864Y0018270D01*
X0031782Y0018505D01*
X0031695Y0018739D01*
X0031602Y0018970D01*
X0031503Y0019198D01*
X0031399Y0019425D01*
X0031289Y0019648D01*
X0031174Y0019869D01*
X0031053Y0020087D01*
X0030927Y0020302D01*
X0030796Y0020514D01*
X0030660Y0020722D01*
X0030519Y0020928D01*
X0030373Y0021129D01*
X0030222Y0021327D01*
X0030716Y0021717D01*
X0030877Y0021507D01*
X0031032Y0021293D01*
X0031182Y0021075D01*
X0031327Y0020854D01*
X0031466Y0020629D01*
X0031600Y0020400D01*
X0031728Y0020169D01*
X0031850Y0019934D01*
X0031967Y0019697D01*
X0032078Y0019456D01*
X0032182Y0019214D01*
X0032281Y0018968D01*
X0032374Y0018720D01*
X0032461Y0018470D01*
X0032541Y0018218D01*
X0032616Y0017965D01*
X0032684Y0017709D01*
X0032746Y0017452D01*
X0032802Y0017193D01*
X0032851Y0016933D01*
X0032894Y0016672D01*
X0032930Y0016410D01*
X0032960Y0016147D01*
X0032984Y0015884D01*
X0033001Y0015620D01*
X0033012Y0015355D01*
X0033016Y0015091D01*
X0033014Y0014826D01*
X0033005Y0014562D01*
X0032990Y0014298D01*
X0032968Y0014034D01*
X0032940Y0013771D01*
X0032906Y0013509D01*
X0032865Y0013247D01*
X0032817Y0012987D01*
X0032764Y0012728D01*
X0032704Y0012470D01*
X0032638Y0012214D01*
X0032565Y0011960D01*
X0032486Y0011707D01*
X0032402Y0011457D01*
X0032311Y0011208D01*
X0032214Y0010962D01*
X0032111Y0010718D01*
X0032002Y0010477D01*
X0031887Y0010239D01*
X0031766Y0010003D01*
X0031640Y0009771D01*
X0031508Y0009542D01*
X0031371Y0009316D01*
X0031228Y0009093D01*
X0031079Y0008874D01*
X0030925Y0008659D01*
X0030766Y0008447D01*
X0030602Y0008240D01*
X0030433Y0008036D01*
X0030259Y0007837D01*
X0030080Y0007642D01*
X0029897Y0007451D01*
X0029709Y0007265D01*
X0029516Y0007084D01*
X0029319Y0006908D01*
X0029118Y0006736D01*
X0028912Y0006569D01*
X0028703Y0006408D01*
X0028489Y0006251D01*
X0028272Y0006100D01*
X0028052Y0005954D01*
X0027827Y0005814D01*
X0027600Y0005679D01*
X0027369Y0005550D01*
X0027135Y0005426D01*
X0026898Y0005308D01*
X0026658Y0005196D01*
X0026416Y0005090D01*
X0026171Y0004990D01*
X0025924Y0004896D01*
X0025674Y0004808D01*
X0025423Y0004726D01*
X0025403Y0004789D01*
X0025653Y0004871D01*
X0025901Y0004958D01*
X0026147Y0005052D01*
X0026391Y0005151D01*
X0026631Y0005257D01*
X0026870Y0005368D01*
X0027105Y0005485D01*
X0027338Y0005608D01*
X0027567Y0005736D01*
X0027793Y0005870D01*
X0028016Y0006010D01*
X0028235Y0006155D01*
X0028451Y0006305D01*
X0028663Y0006460D01*
X0028871Y0006621D01*
X0029076Y0006787D01*
X0029276Y0006957D01*
X0029471Y0007133D01*
X0029663Y0007313D01*
X0029850Y0007498D01*
X0030032Y0007687D01*
X0030210Y0007881D01*
X0030383Y0008079D01*
X0030551Y0008281D01*
X0030714Y0008488D01*
X0030872Y0008698D01*
X0031025Y0008912D01*
X0031173Y0009129D01*
X0031315Y0009351D01*
X0031451Y0009575D01*
X0031582Y0009803D01*
X0031708Y0010034D01*
X0031828Y0010268D01*
X0031942Y0010505D01*
X0032050Y0010745D01*
X0032153Y0010987D01*
X0032249Y0011232D01*
X0032339Y0011479D01*
X0032424Y0011728D01*
X0032502Y0011979D01*
X0032574Y0012231D01*
X0032640Y0012486D01*
X0032699Y0012742D01*
X0032753Y0013000D01*
X0032800Y0013258D01*
X0032840Y0013518D01*
X0032875Y0013779D01*
X0032902Y0014040D01*
X0032924Y0014302D01*
X0032939Y0014565D01*
X0032948Y0014828D01*
X0032950Y0015091D01*
X0032946Y0015353D01*
X0032935Y0015616D01*
X0032918Y0015879D01*
X0032895Y0016140D01*
X0032865Y0016402D01*
X0032828Y0016662D01*
X0032786Y0016922D01*
X0032737Y0017180D01*
X0032682Y0017437D01*
X0032620Y0017693D01*
X0032552Y0017947D01*
X0032478Y0018199D01*
X0032398Y0018449D01*
X0032312Y0018698D01*
X0032220Y0018944D01*
X0032122Y0019188D01*
X0032017Y0019429D01*
X0031907Y0019668D01*
X0031791Y0019904D01*
X0031670Y0020137D01*
X0031543Y0020367D01*
X0031410Y0020594D01*
X0031271Y0020818D01*
X0031128Y0021038D01*
X0030978Y0021255D01*
X0030824Y0021467D01*
X0030664Y0021676D01*
X0030613Y0021636D01*
X0030771Y0021428D01*
X0030925Y0021216D01*
X0031073Y0021001D01*
X0031216Y0020782D01*
X0031353Y0020560D01*
X0031485Y0020335D01*
X0031612Y0020106D01*
X0031733Y0019874D01*
X0031848Y0019640D01*
X0031957Y0019402D01*
X0032061Y0019162D01*
X0032158Y0018920D01*
X0032250Y0018675D01*
X0032336Y0018428D01*
X0032415Y0018180D01*
X0032489Y0017929D01*
X0032556Y0017676D01*
X0032617Y0017422D01*
X0032672Y0017167D01*
X0032721Y0016910D01*
X0032763Y0016652D01*
X0032799Y0016393D01*
X0032829Y0016134D01*
X0032852Y0015873D01*
X0032869Y0015613D01*
X0032880Y0015352D01*
X0032884Y0015090D01*
X0032882Y0014829D01*
X0032873Y0014568D01*
X0032858Y0014307D01*
X0032837Y0014046D01*
X0032809Y0013787D01*
X0032775Y0013527D01*
X0032735Y0013269D01*
X0032688Y0013012D01*
X0032635Y0012756D01*
X0032576Y0012502D01*
X0032510Y0012249D01*
X0032439Y0011997D01*
X0032361Y0011748D01*
X0032277Y0011500D01*
X0032187Y0011255D01*
X0032091Y0011012D01*
X0031990Y0010771D01*
X0031882Y0010533D01*
X0031769Y0010298D01*
X0031650Y0010065D01*
X0031525Y0009835D01*
X0031395Y0009609D01*
X0031259Y0009386D01*
X0031117Y0009166D01*
X0030971Y0008950D01*
X0030819Y0008737D01*
X0030662Y0008528D01*
X0030500Y0008323D01*
X0030333Y0008122D01*
X0030161Y0007925D01*
X0029984Y0007733D01*
X0029803Y0007544D01*
X0029617Y0007361D01*
X0029427Y0007182D01*
X0029232Y0007007D01*
X0029033Y0006838D01*
X0028831Y0006673D01*
X0028624Y0006513D01*
X0028413Y0006359D01*
X0028199Y0006209D01*
X0027980Y0006065D01*
X0027759Y0005927D01*
X0027534Y0005793D01*
X0027306Y0005666D01*
X0027075Y0005544D01*
X0026841Y0005427D01*
X0026604Y0005317D01*
X0026365Y0005212D01*
X0026123Y0005113D01*
X0025879Y0005020D01*
X0025632Y0004933D01*
X0025384Y0004852D01*
X0025365Y0004915D01*
X0025611Y0004996D01*
X0025856Y0005082D01*
X0026099Y0005174D01*
X0026339Y0005273D01*
X0026577Y0005377D01*
X0026813Y0005487D01*
X0027045Y0005603D01*
X0027275Y0005724D01*
X0027501Y0005851D01*
X0027725Y0005983D01*
X0027945Y0006121D01*
X0028162Y0006264D01*
X0028375Y0006413D01*
X0028584Y0006566D01*
X0028790Y0006725D01*
X0028991Y0006888D01*
X0029189Y0007057D01*
X0029382Y0007230D01*
X0029571Y0007408D01*
X0029756Y0007591D01*
X0029936Y0007778D01*
X0030112Y0007969D01*
X0030283Y0008165D01*
X0030449Y0008365D01*
X0030610Y0008568D01*
X0030766Y0008776D01*
X0030917Y0008987D01*
X0031062Y0009202D01*
X0031203Y0009421D01*
X0031338Y0009643D01*
X0031467Y0009868D01*
X0031591Y0010096D01*
X0031710Y0010327D01*
X0031822Y0010561D01*
X0031929Y0010798D01*
X0032030Y0011037D01*
X0032126Y0011279D01*
X0032215Y0011522D01*
X0032298Y0011768D01*
X0032375Y0012016D01*
X0032447Y0012266D01*
X0032512Y0012518D01*
X0032570Y0012770D01*
X0032623Y0013025D01*
X0032669Y0013280D01*
X0032710Y0013537D01*
X0032743Y0013794D01*
X0032771Y0014053D01*
X0032792Y0014311D01*
X0032807Y0014571D01*
X0032816Y0014830D01*
X0032818Y0015090D01*
X0032814Y0015350D01*
X0032803Y0015609D01*
X0032786Y0015868D01*
X0032763Y0016127D01*
X0032734Y0016385D01*
X0032698Y0016642D01*
X0032656Y0016898D01*
X0032608Y0017154D01*
X0032553Y0017407D01*
X0032492Y0017660D01*
X0032425Y0017911D01*
X0032352Y0018160D01*
X0032273Y0018407D01*
X0032188Y0018653D01*
X0032097Y0018896D01*
X0032000Y0019137D01*
X0031897Y0019375D01*
X0031788Y0019611D01*
X0031674Y0019844D01*
X0031554Y0020075D01*
X0031428Y0020302D01*
X0031297Y0020526D01*
X0031160Y0020747D01*
X0031018Y0020964D01*
X0030871Y0021178D01*
X0030718Y0021388D01*
X0030561Y0021595D01*
X0030509Y0021554D01*
X0030666Y0021349D01*
X0030817Y0021140D01*
X0030963Y0020927D01*
X0031105Y0020711D01*
X0031240Y0020492D01*
X0031371Y0020269D01*
X0031496Y0020043D01*
X0031615Y0019814D01*
X0031729Y0019583D01*
X0031837Y0019348D01*
X0031939Y0019111D01*
X0032035Y0018872D01*
X0032126Y0018630D01*
X0032211Y0018386D01*
X0032289Y0018141D01*
X0032362Y0017893D01*
X0032428Y0017644D01*
X0032489Y0017393D01*
X0032543Y0017140D01*
X0032591Y0016887D01*
X0032633Y0016632D01*
X0032668Y0016377D01*
X0032698Y0016120D01*
X0032721Y0015863D01*
X0032737Y0015606D01*
X0032748Y0015348D01*
X0032752Y0015090D01*
X0032750Y0014832D01*
X0032741Y0014574D01*
X0032726Y0014316D01*
X0032705Y0014059D01*
X0032678Y0013802D01*
X0032644Y0013546D01*
X0032604Y0013291D01*
X0032558Y0013037D01*
X0032506Y0012785D01*
X0032447Y0012533D01*
X0032383Y0012283D01*
X0032312Y0012035D01*
X0032235Y0011789D01*
X0032153Y0011544D01*
X0032064Y0011302D01*
X0031969Y0011062D01*
X0031869Y0010824D01*
X0031763Y0010589D01*
X0031651Y0010356D01*
X0031533Y0010127D01*
X0031410Y0009900D01*
X0031281Y0009676D01*
X0031147Y0009456D01*
X0031007Y0009239D01*
X0030863Y0009025D01*
X0030713Y0008815D01*
X0030558Y0008609D01*
X0030398Y0008406D01*
X0030233Y0008208D01*
X0030063Y0008013D01*
X0029888Y0007823D01*
X0029709Y0007637D01*
X0029526Y0007456D01*
X0029338Y0007279D01*
X0029146Y0007107D01*
X0028949Y0006939D01*
X0028749Y0006777D01*
X0028545Y0006619D01*
X0028336Y0006466D01*
X0028125Y0006319D01*
X0027909Y0006177D01*
X0027691Y0006040D01*
X0027469Y0005908D01*
X0027243Y0005782D01*
X0027015Y0005661D01*
X0026784Y0005546D01*
X0026550Y0005437D01*
X0026314Y0005334D01*
X0026075Y0005236D01*
X0025834Y0005144D01*
X0025590Y0005058D01*
X0025345Y0004978D01*
X0025326Y0005041D01*
X0025569Y0005121D01*
X0025811Y0005206D01*
X0026051Y0005297D01*
X0026288Y0005395D01*
X0026523Y0005497D01*
X0026756Y0005606D01*
X0026985Y0005720D01*
X0027212Y0005840D01*
X0027436Y0005965D01*
X0027656Y0006096D01*
X0027874Y0006232D01*
X0028088Y0006374D01*
X0028298Y0006520D01*
X0028505Y0006672D01*
X0028708Y0006828D01*
X0028907Y0006990D01*
X0029102Y0007156D01*
X0029293Y0007328D01*
X0029480Y0007503D01*
X0029662Y0007684D01*
X0029840Y0007868D01*
X0030014Y0008057D01*
X0030182Y0008251D01*
X0030346Y0008448D01*
X0030505Y0008649D01*
X0030659Y0008854D01*
X0030808Y0009063D01*
X0030952Y0009275D01*
X0031091Y0009491D01*
X0031224Y0009710D01*
X0031352Y0009932D01*
X0031475Y0010158D01*
X0031591Y0010386D01*
X0031703Y0010617D01*
X0031808Y0010851D01*
X0031908Y0011087D01*
X0032002Y0011325D01*
X0032090Y0011566D01*
X0032173Y0011809D01*
X0032249Y0012054D01*
X0032319Y0012301D01*
X0032383Y0012549D01*
X0032441Y0012799D01*
X0032493Y0013050D01*
X0032539Y0013302D01*
X0032579Y0013556D01*
X0032612Y0013810D01*
X0032640Y0014065D01*
X0032661Y0014320D01*
X0032675Y0014577D01*
X0032684Y0014833D01*
X0032686Y0015089D01*
X0032682Y0015346D01*
X0032671Y0015602D01*
X0032655Y0015858D01*
X0032632Y0016113D01*
X0032603Y0016368D01*
X0032567Y0016622D01*
X0032526Y0016875D01*
X0032478Y0017127D01*
X0032424Y0017378D01*
X0032364Y0017627D01*
X0032298Y0017875D01*
X0032226Y0018121D01*
X0032148Y0018365D01*
X0032064Y0018608D01*
X0031974Y0018848D01*
X0031878Y0019086D01*
X0031777Y0019321D01*
X0031669Y0019554D01*
X0031556Y0019784D01*
X0031438Y0020012D01*
X0031314Y0020236D01*
X0031184Y0020458D01*
X0031049Y0020676D01*
X0030909Y0020890D01*
X0030763Y0021102D01*
X0030613Y0021309D01*
X0030457Y0021513D01*
X0030405Y0021472D01*
X0030560Y0021270D01*
X0030710Y0021063D01*
X0030854Y0020853D01*
X0030993Y0020640D01*
X0031128Y0020423D01*
X0031256Y0020203D01*
X0031380Y0019980D01*
X0031497Y0019754D01*
X0031610Y0019526D01*
X0031716Y0019294D01*
X0031817Y0019060D01*
X0031913Y0018824D01*
X0032002Y0018585D01*
X0032085Y0018344D01*
X0032163Y0018102D01*
X0032235Y0017857D01*
X0032300Y0017611D01*
X0032360Y0017363D01*
X0032414Y0017114D01*
X0032461Y0016864D01*
X0032502Y0016612D01*
X0032537Y0016360D01*
X0032566Y0016107D01*
X0032589Y0015853D01*
X0032606Y0015598D01*
X0032616Y0015344D01*
X0032620Y0015089D01*
X0032618Y0014834D01*
X0032609Y0014579D01*
X0032595Y0014325D01*
X0032574Y0014071D01*
X0032547Y0013818D01*
X0032514Y0013565D01*
X0032474Y0013313D01*
X0032429Y0013062D01*
X0032377Y0012813D01*
X0032319Y0012565D01*
X0032255Y0012318D01*
X0032186Y0012073D01*
X0032110Y0011830D01*
X0032028Y0011588D01*
X0031940Y0011349D01*
X0031847Y0011112D01*
X0031748Y0010877D01*
X0031643Y0010645D01*
X0031532Y0010415D01*
X0031416Y0010188D01*
X0031295Y0009964D01*
X0031167Y0009744D01*
X0031035Y0009526D01*
X0030897Y0009311D01*
X0030754Y0009100D01*
X0030606Y0008893D01*
X0030453Y0008689D01*
X0030295Y0008489D01*
X0030132Y0008293D01*
X0029965Y0008101D01*
X0029792Y0007914D01*
X0029616Y0007730D01*
X0029434Y0007551D01*
X0029249Y0007376D01*
X0029059Y0007206D01*
X0028865Y0007041D01*
X0028667Y0006880D01*
X0028465Y0006725D01*
X0028260Y0006574D01*
X0028051Y0006428D01*
X0027838Y0006288D01*
X0027622Y0006152D01*
X0027403Y0006023D01*
X0027181Y0005898D01*
X0026955Y0005779D01*
X0026727Y0005665D01*
X0026496Y0005558D01*
X0026263Y0005455D01*
X0026027Y0005359D01*
X0025789Y0005268D01*
X0025548Y0005183D01*
X0025306Y0005104D01*
X0025287Y0005168D01*
X0025527Y0005246D01*
X0025766Y0005330D01*
X0026003Y0005420D01*
X0026237Y0005516D01*
X0026469Y0005618D01*
X0026699Y0005725D01*
X0026925Y0005838D01*
X0027149Y0005956D01*
X0027370Y0006080D01*
X0027588Y0006209D01*
X0027803Y0006343D01*
X0028014Y0006483D01*
X0028222Y0006628D01*
X0028426Y0006777D01*
X0028626Y0006932D01*
X0028823Y0007092D01*
X0029016Y0007256D01*
X0029204Y0007425D01*
X0029389Y0007599D01*
X0029569Y0007777D01*
X0029744Y0007959D01*
X0029915Y0008146D01*
X0030082Y0008336D01*
X0030244Y0008531D01*
X0030401Y0008730D01*
X0030553Y0008932D01*
X0030700Y0009138D01*
X0030842Y0009348D01*
X0030979Y0009561D01*
X0031111Y0009777D01*
X0031237Y0009997D01*
X0031358Y0010219D01*
X0031473Y0010445D01*
X0031583Y0010673D01*
X0031687Y0010904D01*
X0031786Y0011137D01*
X0031879Y0011372D01*
X0031966Y0011610D01*
X0032047Y0011850D01*
X0032122Y0012092D01*
X0032192Y0012335D01*
X0032255Y0012580D01*
X0032313Y0012827D01*
X0032364Y0013075D01*
X0032409Y0013324D01*
X0032448Y0013574D01*
X0032481Y0013825D01*
X0032508Y0014077D01*
X0032529Y0014330D01*
X0032543Y0014582D01*
X0032552Y0014835D01*
X0032554Y0015089D01*
X0032550Y0015342D01*
X0032540Y0015595D01*
X0032523Y0015848D01*
X0032501Y0016100D01*
X0032472Y0016351D01*
X0032437Y0016602D01*
X0032396Y0016852D01*
X0032349Y0017101D01*
X0032296Y0017348D01*
X0032236Y0017595D01*
X0032171Y0017839D01*
X0032100Y0018082D01*
X0032023Y0018323D01*
X0031940Y0018563D01*
X0031851Y0018800D01*
X0031756Y0019035D01*
X0031656Y0019267D01*
X0031550Y0019497D01*
X0031439Y0019725D01*
X0031322Y0019949D01*
X0031199Y0020171D01*
X0031071Y0020389D01*
X0030938Y0020604D01*
X0030799Y0020817D01*
X0030656Y0021025D01*
X0030507Y0021230D01*
X0030353Y0021431D01*
X0030302Y0021390D01*
X0030454Y0021190D01*
X0030602Y0020987D01*
X0030745Y0020780D01*
X0030882Y0020569D01*
X0031015Y0020355D01*
X0031142Y0020138D01*
X0031263Y0019918D01*
X0031380Y0019695D01*
X0031491Y0019469D01*
X0031596Y0019240D01*
X0031696Y0019009D01*
X0031790Y0018776D01*
X0031878Y0018540D01*
X0031960Y0018302D01*
X0032037Y0018063D01*
X0032108Y0017821D01*
X0032172Y0017578D01*
X0032231Y0017334D01*
X0032284Y0017088D01*
X0032331Y0016840D01*
X0032372Y0016592D01*
X0032406Y0016343D01*
X0032435Y0016093D01*
X0032457Y0015842D01*
X0032474Y0015591D01*
X0032484Y0015340D01*
X0032488Y0015088D01*
X0032486Y0014837D01*
X0032477Y0014585D01*
X0032463Y0014334D01*
X0032442Y0014083D01*
X0032416Y0013833D01*
X0032383Y0013584D01*
X0032344Y0013335D01*
X0032299Y0013088D01*
X0032248Y0012841D01*
X0032191Y0012596D01*
X0032128Y0012353D01*
X0032059Y0012111D01*
X0031984Y0011870D01*
X0031904Y0011632D01*
X0031817Y0011396D01*
X0031725Y0011162D01*
X0031627Y0010930D01*
X0031523Y0010701D01*
X0031414Y0010474D01*
X0031300Y0010250D01*
X0031179Y0010029D01*
X0031054Y0009811D01*
X0030923Y0009596D01*
X0030787Y0009384D01*
X0030646Y0009176D01*
X0030500Y0008971D01*
X0030349Y0008770D01*
X0030193Y0008573D01*
X0030032Y0008379D01*
X0029866Y0008190D01*
X0029696Y0008004D01*
X0029522Y0007823D01*
X0029343Y0007646D01*
X0029160Y0007474D01*
X0028972Y0007306D01*
X0028781Y0007143D01*
X0028585Y0006984D01*
X0028386Y0006830D01*
X0028183Y0006681D01*
X0027977Y0006538D01*
X0027767Y0006399D01*
X0027554Y0006265D01*
X0027337Y0006137D01*
X0027118Y0006014D01*
X0026895Y0005897D01*
X0026670Y0005785D01*
X0026442Y0005678D01*
X0026212Y0005577D01*
X0025979Y0005482D01*
X0025744Y0005392D01*
X0025506Y0005309D01*
X0025267Y0005231D01*
X0025248Y0005294D01*
X0025485Y0005371D01*
X0025721Y0005454D01*
X0025955Y0005543D01*
X0026186Y0005638D01*
X0026415Y0005738D01*
X0026642Y0005844D01*
X0026865Y0005955D01*
X0027086Y0006072D01*
X0027305Y0006194D01*
X0027520Y0006322D01*
X0027731Y0006454D01*
X0027940Y0006592D01*
X0028145Y0006735D01*
X0028347Y0006883D01*
X0028545Y0007036D01*
X0028739Y0007193D01*
X0028929Y0007356D01*
X0029115Y0007522D01*
X0029297Y0007694D01*
X0029475Y0007869D01*
X0029648Y0008050D01*
X0029817Y0008234D01*
X0029982Y0008422D01*
X0030141Y0008614D01*
X0030296Y0008810D01*
X0030447Y0009010D01*
X0030592Y0009214D01*
X0030732Y0009421D01*
X0030867Y0009631D01*
X0030997Y0009845D01*
X0031122Y0010061D01*
X0031241Y0010281D01*
X0031355Y0010503D01*
X0031464Y0010729D01*
X0031566Y0010956D01*
X0031664Y0011187D01*
X0031755Y0011419D01*
X0031841Y0011654D01*
X0031922Y0011891D01*
X0031996Y0012129D01*
X0032064Y0012370D01*
X0032127Y0012612D01*
X0032184Y0012855D01*
X0032234Y0013100D01*
X0032279Y0013346D01*
X0032318Y0013593D01*
X0032350Y0013841D01*
X0032377Y0014089D01*
X0032397Y0014339D01*
X0032412Y0014588D01*
X0032420Y0014838D01*
X0032422Y0015088D01*
X0032418Y0015338D01*
X0032408Y0015588D01*
X0032392Y0015837D01*
X0032369Y0016086D01*
X0032341Y0016335D01*
X0032307Y0016582D01*
X0032266Y0016829D01*
X0032220Y0017074D01*
X0032167Y0017319D01*
X0032109Y0017562D01*
X0032044Y0017803D01*
X0031974Y0018043D01*
X0031898Y0018281D01*
X0031816Y0018518D01*
X0031728Y0018752D01*
X0031635Y0018984D01*
X0031536Y0019213D01*
X0031431Y0019440D01*
X0031321Y0019665D01*
X0031205Y0019886D01*
X0031084Y0020105D01*
X0030958Y0020321D01*
X0030827Y0020533D01*
X0030690Y0020743D01*
X0030548Y0020949D01*
X0030401Y0021151D01*
X0030250Y0021350D01*
X0013684Y0021717D02*
X0014179Y0021327D01*
X0014179Y0021328D02*
X0014027Y0021129D01*
X0013881Y0020928D01*
X0013740Y0020723D01*
X0013604Y0020514D01*
X0013473Y0020302D01*
X0013347Y0020087D01*
X0013226Y0019869D01*
X0013111Y0019648D01*
X0013001Y0019425D01*
X0012897Y0019199D01*
X0012799Y0018970D01*
X0012705Y0018739D01*
X0012618Y0018505D01*
X0012536Y0018270D01*
X0012461Y0018033D01*
X0012391Y0017794D01*
X0012326Y0017553D01*
X0012268Y0017311D01*
X0012216Y0017067D01*
X0012169Y0016823D01*
X0012129Y0016577D01*
X0012095Y0016330D01*
X0012066Y0016083D01*
X0012044Y0015835D01*
X0012028Y0015586D01*
X0012018Y0015337D01*
X0012014Y0015088D01*
X0012016Y0014839D01*
X0012024Y0014590D01*
X0012039Y0014341D01*
X0012059Y0014093D01*
X0012085Y0013845D01*
X0012118Y0013598D01*
X0012156Y0013352D01*
X0012201Y0013107D01*
X0012252Y0012863D01*
X0012308Y0012621D01*
X0012370Y0012379D01*
X0012439Y0012140D01*
X0012513Y0011902D01*
X0012593Y0011666D01*
X0012678Y0011432D01*
X0012770Y0011200D01*
X0012866Y0010971D01*
X0012969Y0010744D01*
X0013077Y0010520D01*
X0013191Y0010298D01*
X0013310Y0010079D01*
X0013434Y0009863D01*
X0013563Y0009650D01*
X0013698Y0009441D01*
X0013838Y0009234D01*
X0013982Y0009032D01*
X0014132Y0008833D01*
X0014286Y0008637D01*
X0014446Y0008446D01*
X0014609Y0008258D01*
X0014778Y0008074D01*
X0014951Y0007895D01*
X0015128Y0007720D01*
X0015309Y0007549D01*
X0015495Y0007383D01*
X0015684Y0007221D01*
X0015878Y0007064D01*
X0016075Y0006912D01*
X0016276Y0006765D01*
X0016480Y0006622D01*
X0016688Y0006485D01*
X0016899Y0006353D01*
X0017113Y0006226D01*
X0017331Y0006104D01*
X0017551Y0005988D01*
X0017774Y0005877D01*
X0017999Y0005771D01*
X0018228Y0005671D01*
X0018458Y0005577D01*
X0018691Y0005488D01*
X0018926Y0005405D01*
X0019163Y0005328D01*
X0018977Y0004727D01*
X0018977Y0004726D01*
X0018725Y0004808D01*
X0018476Y0004896D01*
X0018229Y0004990D01*
X0017984Y0005090D01*
X0017741Y0005196D01*
X0017502Y0005308D01*
X0017265Y0005426D01*
X0017031Y0005550D01*
X0016800Y0005679D01*
X0016572Y0005814D01*
X0016348Y0005954D01*
X0016128Y0006100D01*
X0015910Y0006251D01*
X0015697Y0006408D01*
X0015488Y0006569D01*
X0015282Y0006736D01*
X0015081Y0006908D01*
X0014884Y0007084D01*
X0014691Y0007266D01*
X0014503Y0007452D01*
X0014319Y0007642D01*
X0014141Y0007837D01*
X0013967Y0008036D01*
X0013798Y0008240D01*
X0013633Y0008447D01*
X0013474Y0008659D01*
X0013321Y0008874D01*
X0013172Y0009093D01*
X0013029Y0009316D01*
X0012892Y0009542D01*
X0012760Y0009771D01*
X0012634Y0010004D01*
X0012513Y0010239D01*
X0012398Y0010477D01*
X0012289Y0010718D01*
X0012186Y0010962D01*
X0012089Y0011208D01*
X0011998Y0011457D01*
X0011914Y0011707D01*
X0011835Y0011960D01*
X0011762Y0012214D01*
X0011696Y0012470D01*
X0011636Y0012728D01*
X0011583Y0012987D01*
X0011535Y0013248D01*
X0011494Y0013509D01*
X0011460Y0013771D01*
X0011432Y0014034D01*
X0011410Y0014298D01*
X0011395Y0014562D01*
X0011386Y0014826D01*
X0011384Y0015091D01*
X0011388Y0015356D01*
X0011399Y0015620D01*
X0011416Y0015884D01*
X0011440Y0016147D01*
X0011470Y0016410D01*
X0011506Y0016672D01*
X0011549Y0016933D01*
X0011599Y0017193D01*
X0011654Y0017452D01*
X0011716Y0017709D01*
X0011784Y0017965D01*
X0011859Y0018219D01*
X0011939Y0018471D01*
X0012026Y0018721D01*
X0012119Y0018968D01*
X0012218Y0019214D01*
X0012322Y0019457D01*
X0012433Y0019697D01*
X0012550Y0019934D01*
X0012672Y0020169D01*
X0012800Y0020400D01*
X0012934Y0020629D01*
X0013073Y0020854D01*
X0013218Y0021075D01*
X0013368Y0021293D01*
X0013523Y0021507D01*
X0013684Y0021718D01*
X0013736Y0021677D01*
X0013576Y0021468D01*
X0013422Y0021255D01*
X0013273Y0021038D01*
X0013129Y0020818D01*
X0012990Y0020595D01*
X0012858Y0020368D01*
X0012730Y0020138D01*
X0012609Y0019904D01*
X0012493Y0019668D01*
X0012383Y0019430D01*
X0012278Y0019188D01*
X0012180Y0018944D01*
X0012088Y0018698D01*
X0012002Y0018450D01*
X0011922Y0018199D01*
X0011848Y0017947D01*
X0011780Y0017693D01*
X0011718Y0017437D01*
X0011663Y0017180D01*
X0011614Y0016922D01*
X0011572Y0016662D01*
X0011535Y0016402D01*
X0011505Y0016141D01*
X0011482Y0015879D01*
X0011465Y0015616D01*
X0011454Y0015354D01*
X0011450Y0015091D01*
X0011452Y0014828D01*
X0011461Y0014565D01*
X0011476Y0014302D01*
X0011498Y0014040D01*
X0011525Y0013779D01*
X0011560Y0013518D01*
X0011600Y0013258D01*
X0011647Y0013000D01*
X0011701Y0012742D01*
X0011760Y0012486D01*
X0011826Y0012232D01*
X0011898Y0011979D01*
X0011976Y0011728D01*
X0012061Y0011479D01*
X0012151Y0011232D01*
X0012247Y0010987D01*
X0012350Y0010745D01*
X0012458Y0010505D01*
X0012572Y0010268D01*
X0012692Y0010034D01*
X0012817Y0009803D01*
X0012949Y0009575D01*
X0013085Y0009351D01*
X0013227Y0009130D01*
X0013375Y0008912D01*
X0013528Y0008698D01*
X0013686Y0008488D01*
X0013849Y0008281D01*
X0014017Y0008079D01*
X0014190Y0007881D01*
X0014367Y0007687D01*
X0014550Y0007498D01*
X0014737Y0007313D01*
X0014928Y0007133D01*
X0015124Y0006957D01*
X0015324Y0006787D01*
X0015528Y0006621D01*
X0015737Y0006461D01*
X0015949Y0006305D01*
X0016164Y0006155D01*
X0016384Y0006010D01*
X0016607Y0005870D01*
X0016833Y0005736D01*
X0017062Y0005608D01*
X0017295Y0005485D01*
X0017530Y0005368D01*
X0017768Y0005257D01*
X0018009Y0005151D01*
X0018253Y0005052D01*
X0018498Y0004958D01*
X0018746Y0004871D01*
X0018996Y0004789D01*
X0019016Y0004852D01*
X0018767Y0004933D01*
X0018521Y0005020D01*
X0018277Y0005113D01*
X0018035Y0005212D01*
X0017796Y0005317D01*
X0017559Y0005427D01*
X0017325Y0005544D01*
X0017094Y0005666D01*
X0016866Y0005794D01*
X0016641Y0005927D01*
X0016419Y0006065D01*
X0016201Y0006209D01*
X0015987Y0006359D01*
X0015776Y0006513D01*
X0015569Y0006673D01*
X0015366Y0006838D01*
X0015168Y0007007D01*
X0014973Y0007182D01*
X0014783Y0007361D01*
X0014597Y0007544D01*
X0014416Y0007733D01*
X0014239Y0007925D01*
X0014067Y0008122D01*
X0013900Y0008323D01*
X0013738Y0008528D01*
X0013581Y0008737D01*
X0013429Y0008950D01*
X0013282Y0009166D01*
X0013141Y0009386D01*
X0013005Y0009609D01*
X0012875Y0009836D01*
X0012750Y0010065D01*
X0012631Y0010298D01*
X0012518Y0010533D01*
X0012410Y0010771D01*
X0012309Y0011012D01*
X0012213Y0011255D01*
X0012123Y0011501D01*
X0012039Y0011748D01*
X0011961Y0011998D01*
X0011890Y0012249D01*
X0011824Y0012502D01*
X0011765Y0012756D01*
X0011712Y0013012D01*
X0011665Y0013269D01*
X0011625Y0013528D01*
X0011591Y0013787D01*
X0011563Y0014047D01*
X0011542Y0014307D01*
X0011527Y0014568D01*
X0011518Y0014829D01*
X0011516Y0015090D01*
X0011520Y0015352D01*
X0011531Y0015613D01*
X0011548Y0015874D01*
X0011571Y0016134D01*
X0011601Y0016393D01*
X0011637Y0016652D01*
X0011679Y0016910D01*
X0011728Y0017167D01*
X0011783Y0017422D01*
X0011844Y0017676D01*
X0011911Y0017929D01*
X0011985Y0018180D01*
X0012064Y0018429D01*
X0012150Y0018676D01*
X0012242Y0018920D01*
X0012339Y0019163D01*
X0012443Y0019403D01*
X0012552Y0019640D01*
X0012667Y0019874D01*
X0012788Y0020106D01*
X0012915Y0020335D01*
X0013047Y0020560D01*
X0013184Y0020783D01*
X0013327Y0021001D01*
X0013475Y0021217D01*
X0013629Y0021428D01*
X0013787Y0021636D01*
X0013839Y0021595D01*
X0013682Y0021389D01*
X0013529Y0021178D01*
X0013382Y0020964D01*
X0013240Y0020747D01*
X0013103Y0020526D01*
X0012972Y0020302D01*
X0012846Y0020075D01*
X0012726Y0019845D01*
X0012612Y0019611D01*
X0012503Y0019376D01*
X0012400Y0019137D01*
X0012303Y0018896D01*
X0012212Y0018653D01*
X0012127Y0018408D01*
X0012048Y0018160D01*
X0011975Y0017911D01*
X0011908Y0017660D01*
X0011847Y0017408D01*
X0011793Y0017154D01*
X0011744Y0016899D01*
X0011702Y0016642D01*
X0011666Y0016385D01*
X0011637Y0016127D01*
X0011614Y0015868D01*
X0011597Y0015609D01*
X0011586Y0015350D01*
X0011582Y0015090D01*
X0011584Y0014830D01*
X0011593Y0014571D01*
X0011608Y0014312D01*
X0011629Y0014053D01*
X0011656Y0013795D01*
X0011690Y0013537D01*
X0011731Y0013280D01*
X0011777Y0013025D01*
X0011830Y0012771D01*
X0011888Y0012518D01*
X0011953Y0012266D01*
X0012025Y0012016D01*
X0012102Y0011769D01*
X0012185Y0011523D01*
X0012274Y0011279D01*
X0012370Y0011037D01*
X0012471Y0010798D01*
X0012578Y0010561D01*
X0012690Y0010327D01*
X0012809Y0010096D01*
X0012933Y0009868D01*
X0013062Y0009643D01*
X0013197Y0009421D01*
X0013338Y0009202D01*
X0013483Y0008987D01*
X0013634Y0008776D01*
X0013790Y0008568D01*
X0013951Y0008365D01*
X0014117Y0008165D01*
X0014288Y0007969D01*
X0014464Y0007778D01*
X0014644Y0007591D01*
X0014828Y0007408D01*
X0015018Y0007230D01*
X0015211Y0007057D01*
X0015409Y0006888D01*
X0015610Y0006725D01*
X0015816Y0006566D01*
X0016025Y0006413D01*
X0016238Y0006264D01*
X0016455Y0006121D01*
X0016675Y0005983D01*
X0016899Y0005851D01*
X0017125Y0005724D01*
X0017355Y0005603D01*
X0017587Y0005487D01*
X0017823Y0005377D01*
X0018060Y0005273D01*
X0018301Y0005175D01*
X0018544Y0005082D01*
X0018788Y0004996D01*
X0019035Y0004915D01*
X0019055Y0004978D01*
X0018809Y0005058D01*
X0018566Y0005144D01*
X0018325Y0005236D01*
X0018086Y0005334D01*
X0017850Y0005437D01*
X0017616Y0005546D01*
X0017385Y0005661D01*
X0017156Y0005782D01*
X0016931Y0005908D01*
X0016709Y0006040D01*
X0016491Y0006177D01*
X0016275Y0006319D01*
X0016063Y0006466D01*
X0015855Y0006619D01*
X0015651Y0006777D01*
X0015451Y0006939D01*
X0015254Y0007107D01*
X0015062Y0007279D01*
X0014874Y0007456D01*
X0014691Y0007637D01*
X0014512Y0007823D01*
X0014337Y0008013D01*
X0014167Y0008208D01*
X0014002Y0008406D01*
X0013842Y0008609D01*
X0013687Y0008815D01*
X0013537Y0009025D01*
X0013393Y0009239D01*
X0013253Y0009456D01*
X0013119Y0009676D01*
X0012990Y0009900D01*
X0012867Y0010127D01*
X0012749Y0010357D01*
X0012637Y0010589D01*
X0012531Y0010824D01*
X0012431Y0011062D01*
X0012336Y0011302D01*
X0012247Y0011544D01*
X0012165Y0011789D01*
X0012088Y0012035D01*
X0012017Y0012284D01*
X0011953Y0012533D01*
X0011894Y0012785D01*
X0011842Y0013037D01*
X0011796Y0013291D01*
X0011756Y0013546D01*
X0011722Y0013802D01*
X0011695Y0014059D01*
X0011674Y0014316D01*
X0011659Y0014574D01*
X0011650Y0014832D01*
X0011648Y0015090D01*
X0011652Y0015348D01*
X0011663Y0015606D01*
X0011679Y0015863D01*
X0011702Y0016120D01*
X0011732Y0016377D01*
X0011767Y0016632D01*
X0011809Y0016887D01*
X0011857Y0017141D01*
X0011911Y0017393D01*
X0011972Y0017644D01*
X0012038Y0017893D01*
X0012111Y0018141D01*
X0012189Y0018387D01*
X0012274Y0018630D01*
X0012365Y0018872D01*
X0012461Y0019112D01*
X0012563Y0019348D01*
X0012671Y0019583D01*
X0012785Y0019815D01*
X0012904Y0020043D01*
X0013029Y0020269D01*
X0013160Y0020492D01*
X0013296Y0020711D01*
X0013437Y0020927D01*
X0013583Y0021140D01*
X0013735Y0021349D01*
X0013891Y0021554D01*
X0013943Y0021513D01*
X0013787Y0021309D01*
X0013637Y0021102D01*
X0013491Y0020891D01*
X0013351Y0020676D01*
X0013216Y0020458D01*
X0013087Y0020236D01*
X0012962Y0020012D01*
X0012844Y0019785D01*
X0012731Y0019554D01*
X0012624Y0019321D01*
X0012522Y0019086D01*
X0012426Y0018848D01*
X0012336Y0018608D01*
X0012252Y0018366D01*
X0012174Y0018121D01*
X0012102Y0017875D01*
X0012036Y0017627D01*
X0011976Y0017378D01*
X0011922Y0017127D01*
X0011874Y0016875D01*
X0011833Y0016622D01*
X0011797Y0016368D01*
X0011768Y0016113D01*
X0011745Y0015858D01*
X0011729Y0015602D01*
X0011718Y0015346D01*
X0011714Y0015089D01*
X0011716Y0014833D01*
X0011725Y0014577D01*
X0011739Y0014321D01*
X0011760Y0014065D01*
X0011788Y0013810D01*
X0011821Y0013556D01*
X0011861Y0013302D01*
X0011907Y0013050D01*
X0011959Y0012799D01*
X0012017Y0012549D01*
X0012081Y0012301D01*
X0012151Y0012054D01*
X0012227Y0011809D01*
X0012310Y0011566D01*
X0012398Y0011326D01*
X0012492Y0011087D01*
X0012592Y0010851D01*
X0012697Y0010617D01*
X0012808Y0010386D01*
X0012925Y0010158D01*
X0013048Y0009932D01*
X0013176Y0009710D01*
X0013309Y0009491D01*
X0013448Y0009275D01*
X0013591Y0009063D01*
X0013740Y0008854D01*
X0013895Y0008649D01*
X0014054Y0008448D01*
X0014218Y0008251D01*
X0014386Y0008057D01*
X0014560Y0007868D01*
X0014737Y0007684D01*
X0014920Y0007503D01*
X0015107Y0007328D01*
X0015298Y0007157D01*
X0015493Y0006990D01*
X0015692Y0006829D01*
X0015895Y0006672D01*
X0016102Y0006520D01*
X0016312Y0006374D01*
X0016526Y0006232D01*
X0016743Y0006096D01*
X0016964Y0005965D01*
X0017188Y0005840D01*
X0017415Y0005720D01*
X0017644Y0005606D01*
X0017877Y0005497D01*
X0018112Y0005395D01*
X0018349Y0005297D01*
X0018589Y0005206D01*
X0018830Y0005121D01*
X0019074Y0005041D01*
X0019094Y0005105D01*
X0018851Y0005183D01*
X0018611Y0005268D01*
X0018373Y0005359D01*
X0018137Y0005455D01*
X0017904Y0005558D01*
X0017673Y0005666D01*
X0017445Y0005779D01*
X0017219Y0005898D01*
X0016997Y0006023D01*
X0016778Y0006153D01*
X0016562Y0006288D01*
X0016349Y0006428D01*
X0016140Y0006574D01*
X0015934Y0006725D01*
X0015733Y0006880D01*
X0015535Y0007041D01*
X0015341Y0007206D01*
X0015151Y0007376D01*
X0014966Y0007551D01*
X0014784Y0007730D01*
X0014608Y0007914D01*
X0014435Y0008102D01*
X0014268Y0008294D01*
X0014105Y0008490D01*
X0013947Y0008689D01*
X0013794Y0008893D01*
X0013646Y0009101D01*
X0013503Y0009312D01*
X0013365Y0009526D01*
X0013232Y0009744D01*
X0013105Y0009965D01*
X0012984Y0010189D01*
X0012868Y0010415D01*
X0012757Y0010645D01*
X0012652Y0010877D01*
X0012553Y0011112D01*
X0012459Y0011349D01*
X0012372Y0011588D01*
X0012290Y0011830D01*
X0012214Y0012073D01*
X0012145Y0012318D01*
X0012081Y0012565D01*
X0012023Y0012813D01*
X0011971Y0013063D01*
X0011926Y0013313D01*
X0011886Y0013565D01*
X0011853Y0013818D01*
X0011826Y0014071D01*
X0011805Y0014325D01*
X0011791Y0014580D01*
X0011782Y0014834D01*
X0011780Y0015089D01*
X0011784Y0015344D01*
X0011794Y0015599D01*
X0011811Y0015853D01*
X0011834Y0016107D01*
X0011863Y0016360D01*
X0011898Y0016612D01*
X0011939Y0016864D01*
X0011987Y0017114D01*
X0012040Y0017363D01*
X0012100Y0017611D01*
X0012165Y0017857D01*
X0012237Y0018102D01*
X0012315Y0018345D01*
X0012398Y0018585D01*
X0012488Y0018824D01*
X0012583Y0019060D01*
X0012684Y0019294D01*
X0012790Y0019526D01*
X0012903Y0019755D01*
X0013021Y0019981D01*
X0013144Y0020204D01*
X0013273Y0020424D01*
X0013407Y0020640D01*
X0013546Y0020854D01*
X0013691Y0021063D01*
X0013840Y0021270D01*
X0013995Y0021472D01*
X0014047Y0021432D01*
X0013893Y0021230D01*
X0013744Y0021025D01*
X0013601Y0020817D01*
X0013462Y0020605D01*
X0013329Y0020389D01*
X0013201Y0020171D01*
X0013079Y0019949D01*
X0012961Y0019725D01*
X0012850Y0019497D01*
X0012744Y0019267D01*
X0012644Y0019035D01*
X0012549Y0018800D01*
X0012460Y0018563D01*
X0012377Y0018324D01*
X0012300Y0018082D01*
X0012229Y0017839D01*
X0012164Y0017595D01*
X0012104Y0017349D01*
X0012051Y0017101D01*
X0012004Y0016852D01*
X0011963Y0016602D01*
X0011928Y0016352D01*
X0011899Y0016100D01*
X0011877Y0015848D01*
X0011860Y0015595D01*
X0011850Y0015342D01*
X0011846Y0015089D01*
X0011848Y0014836D01*
X0011857Y0014583D01*
X0011871Y0014330D01*
X0011892Y0014077D01*
X0011919Y0013826D01*
X0011952Y0013574D01*
X0011991Y0013324D01*
X0012036Y0013075D01*
X0012087Y0012827D01*
X0012145Y0012581D01*
X0012208Y0012335D01*
X0012278Y0012092D01*
X0012353Y0011850D01*
X0012434Y0011610D01*
X0012521Y0011372D01*
X0012614Y0011137D01*
X0012713Y0010904D01*
X0012817Y0010673D01*
X0012927Y0010445D01*
X0013042Y0010219D01*
X0013163Y0009997D01*
X0013289Y0009777D01*
X0013421Y0009561D01*
X0013558Y0009348D01*
X0013700Y0009138D01*
X0013847Y0008932D01*
X0013999Y0008730D01*
X0014156Y0008531D01*
X0014318Y0008336D01*
X0014484Y0008146D01*
X0014656Y0007959D01*
X0014831Y0007777D01*
X0015011Y0007599D01*
X0015196Y0007425D01*
X0015384Y0007256D01*
X0015577Y0007092D01*
X0015774Y0006932D01*
X0015974Y0006777D01*
X0016178Y0006628D01*
X0016386Y0006483D01*
X0016597Y0006343D01*
X0016812Y0006209D01*
X0017030Y0006080D01*
X0017251Y0005956D01*
X0017475Y0005838D01*
X0017701Y0005725D01*
X0017931Y0005618D01*
X0018163Y0005516D01*
X0018397Y0005420D01*
X0018634Y0005330D01*
X0018872Y0005246D01*
X0019113Y0005168D01*
X0019133Y0005231D01*
X0018893Y0005309D01*
X0018656Y0005392D01*
X0018421Y0005482D01*
X0018188Y0005577D01*
X0017958Y0005678D01*
X0017730Y0005785D01*
X0017505Y0005897D01*
X0017282Y0006014D01*
X0017063Y0006137D01*
X0016846Y0006265D01*
X0016633Y0006399D01*
X0016423Y0006538D01*
X0016216Y0006681D01*
X0016014Y0006830D01*
X0015814Y0006984D01*
X0015619Y0007143D01*
X0015428Y0007306D01*
X0015240Y0007474D01*
X0015057Y0007646D01*
X0014878Y0007823D01*
X0014704Y0008004D01*
X0014534Y0008190D01*
X0014368Y0008379D01*
X0014207Y0008573D01*
X0014051Y0008770D01*
X0013900Y0008971D01*
X0013754Y0009176D01*
X0013613Y0009384D01*
X0013477Y0009596D01*
X0013346Y0009811D01*
X0013221Y0010029D01*
X0013100Y0010250D01*
X0012986Y0010474D01*
X0012877Y0010701D01*
X0012773Y0010930D01*
X0012675Y0011162D01*
X0012583Y0011396D01*
X0012496Y0011632D01*
X0012416Y0011871D01*
X0012341Y0012111D01*
X0012272Y0012353D01*
X0012209Y0012596D01*
X0012152Y0012841D01*
X0012101Y0013088D01*
X0012056Y0013335D01*
X0012017Y0013584D01*
X0011984Y0013833D01*
X0011958Y0014083D01*
X0011937Y0014334D01*
X0011922Y0014585D01*
X0011914Y0014837D01*
X0011912Y0015089D01*
X0011916Y0015340D01*
X0011926Y0015591D01*
X0011943Y0015843D01*
X0011965Y0016093D01*
X0011994Y0016343D01*
X0012028Y0016592D01*
X0012069Y0016841D01*
X0012116Y0017088D01*
X0012169Y0017334D01*
X0012228Y0017578D01*
X0012292Y0017822D01*
X0012363Y0018063D01*
X0012440Y0018303D01*
X0012522Y0018540D01*
X0012610Y0018776D01*
X0012704Y0019009D01*
X0012804Y0019240D01*
X0012909Y0019469D01*
X0013020Y0019695D01*
X0013137Y0019918D01*
X0013258Y0020138D01*
X0013385Y0020355D01*
X0013518Y0020569D01*
X0013655Y0020780D01*
X0013798Y0020987D01*
X0013946Y0021191D01*
X0014098Y0021391D01*
X0014150Y0021350D01*
X0013999Y0021151D01*
X0013852Y0020949D01*
X0013710Y0020743D01*
X0013573Y0020534D01*
X0013442Y0020321D01*
X0013316Y0020105D01*
X0013195Y0019886D01*
X0013079Y0019665D01*
X0012969Y0019440D01*
X0012864Y0019213D01*
X0012765Y0018984D01*
X0012672Y0018752D01*
X0012584Y0018518D01*
X0012502Y0018282D01*
X0012426Y0018044D01*
X0012356Y0017804D01*
X0012292Y0017562D01*
X0012233Y0017319D01*
X0012181Y0017075D01*
X0012134Y0016829D01*
X0012094Y0016582D01*
X0012059Y0016335D01*
X0012031Y0016086D01*
X0012008Y0015837D01*
X0011992Y0015588D01*
X0011982Y0015338D01*
X0011978Y0015088D01*
X0011980Y0014838D01*
X0011988Y0014588D01*
X0012003Y0014339D01*
X0012023Y0014090D01*
X0012050Y0013841D01*
X0012082Y0013593D01*
X0012121Y0013346D01*
X0012166Y0013100D01*
X0012216Y0012856D01*
X0012273Y0012612D01*
X0012336Y0012370D01*
X0012404Y0012130D01*
X0012478Y0011891D01*
X0012559Y0011654D01*
X0012645Y0011419D01*
X0012736Y0011187D01*
X0012833Y0010957D01*
X0012936Y0010729D01*
X0013045Y0010504D01*
X0013159Y0010281D01*
X0013278Y0010061D01*
X0013403Y0009845D01*
X0013533Y0009631D01*
X0013668Y0009421D01*
X0013808Y0009214D01*
X0013953Y0009010D01*
X0014103Y0008811D01*
X0014258Y0008614D01*
X0014418Y0008422D01*
X0014583Y0008234D01*
X0014752Y0008050D01*
X0014925Y0007870D01*
X0015103Y0007694D01*
X0015285Y0007522D01*
X0015471Y0007356D01*
X0015661Y0007193D01*
X0015855Y0007036D01*
X0016053Y0006883D01*
X0016255Y0006735D01*
X0016460Y0006592D01*
X0016668Y0006455D01*
X0016880Y0006322D01*
X0017095Y0006194D01*
X0017313Y0006072D01*
X0017534Y0005955D01*
X0017758Y0005844D01*
X0017985Y0005738D01*
X0018214Y0005638D01*
X0018445Y0005543D01*
X0018679Y0005454D01*
X0018914Y0005371D01*
X0019152Y0005294D01*
D13*
X0013327Y0016050D02*
X0011748Y0016050D01*
X0013953Y0021550D02*
X0030449Y0021550D01*
X0031075Y0016050D02*
X0032654Y0016050D01*
M02*
