G75*
%MOIN*%
%OFA0B0*%
%FSLAX25Y25*%
%IPPOS*%
%LPD*%
%AMOC8*
5,1,8,0,0,1.08239X$1,22.5*
%
%ADD10C,0.00400*%
%ADD11C,0.01200*%
%ADD12OC8,0.06000*%
%ADD13C,0.07400*%
%ADD14OC8,0.05200*%
%ADD15C,0.05200*%
%ADD16C,0.01600*%
%ADD17C,0.03962*%
D10*
X0014276Y0005875D02*
X0014276Y0008944D01*
X0015810Y0010479D01*
X0017345Y0008944D01*
X0017345Y0005875D01*
X0017345Y0008177D02*
X0014276Y0008177D01*
X0023310Y0062750D02*
X0024845Y0065819D01*
X0026380Y0066587D02*
X0027147Y0067354D01*
X0028682Y0067354D01*
X0029449Y0066587D01*
X0029449Y0065819D01*
X0028682Y0065052D01*
X0029449Y0064285D01*
X0029449Y0063517D01*
X0028682Y0062750D01*
X0027147Y0062750D01*
X0026380Y0063517D01*
X0027914Y0065052D02*
X0028682Y0065052D01*
X0030984Y0063517D02*
X0030984Y0062750D01*
X0031751Y0062750D01*
X0031751Y0063517D01*
X0030984Y0063517D01*
X0033286Y0063517D02*
X0036355Y0066587D01*
X0036355Y0063517D01*
X0035588Y0062750D01*
X0034053Y0062750D01*
X0033286Y0063517D01*
X0033286Y0066587D01*
X0034053Y0067354D01*
X0035588Y0067354D01*
X0036355Y0066587D01*
X0035058Y0075250D02*
X0035058Y0078720D01*
X0036792Y0078720D02*
X0035058Y0076985D01*
X0033371Y0076985D02*
X0030769Y0076985D01*
X0029901Y0076117D01*
X0030769Y0075250D01*
X0033371Y0075250D01*
X0033371Y0077852D01*
X0032503Y0078720D01*
X0030769Y0078720D01*
X0028214Y0077852D02*
X0028214Y0076117D01*
X0027347Y0075250D01*
X0025612Y0075250D01*
X0024745Y0076117D01*
X0024745Y0077852D01*
X0025612Y0078720D01*
X0027347Y0078720D01*
X0028214Y0077852D01*
X0023058Y0076985D02*
X0023058Y0076117D01*
X0022191Y0075250D01*
X0019588Y0075250D01*
X0019588Y0080454D01*
X0022191Y0080454D01*
X0023058Y0079587D01*
X0023058Y0078720D01*
X0022191Y0077852D01*
X0019588Y0077852D01*
X0017886Y0078720D02*
X0017886Y0074383D01*
X0017018Y0073515D01*
X0016151Y0073515D01*
X0017886Y0080454D02*
X0017886Y0081322D01*
X0022191Y0077852D02*
X0023058Y0076985D01*
X0021776Y0065819D02*
X0023310Y0062750D01*
X0036792Y0078720D02*
X0037660Y0078720D01*
X0039355Y0077852D02*
X0039355Y0076117D01*
X0040222Y0075250D01*
X0042824Y0075250D01*
X0042824Y0080454D01*
X0042824Y0078720D02*
X0040222Y0078720D01*
X0039355Y0077852D01*
D11*
X0034509Y0080483D02*
X0034509Y0082785D01*
X0032207Y0085087D01*
X0027603Y0085087D01*
X0025301Y0082785D01*
X0034509Y0080483D02*
X0025301Y0071275D01*
X0034509Y0071275D01*
D12*
X0031576Y0037550D03*
X0031576Y0027550D03*
X0041576Y0027550D03*
X0041576Y0037550D03*
X0051576Y0037550D03*
X0051576Y0027550D03*
X0021576Y0027550D03*
X0021576Y0037550D03*
D13*
X0006576Y0007550D03*
X0006576Y0017550D03*
X0006576Y0027550D03*
X0006576Y0037550D03*
X0006576Y0047550D03*
X0006576Y0057550D03*
X0006576Y0067550D03*
X0006576Y0077550D03*
X0006576Y0087550D03*
X0051576Y0077550D03*
X0051576Y0017550D03*
X0051576Y0007550D03*
D14*
X0036576Y0007300D03*
X0027201Y0015050D03*
X0022201Y0007550D03*
X0017201Y0015050D03*
D15*
X0036576Y0015300D03*
D16*
X0036326Y0015050D01*
X0027201Y0015050D01*
X0026576Y0015675D01*
X0026576Y0032550D01*
X0021576Y0037550D01*
X0019076Y0042550D02*
X0016576Y0040050D01*
X0016576Y0022550D01*
X0012201Y0018175D01*
X0012201Y0013175D01*
X0006576Y0007550D01*
X0006576Y0017550D02*
X0012826Y0023800D01*
X0012826Y0040050D01*
X0017826Y0045050D01*
X0034076Y0045050D01*
X0041576Y0037550D01*
X0046576Y0040050D02*
X0046576Y0032550D01*
X0041576Y0027550D01*
X0046576Y0040050D02*
X0038451Y0047550D01*
X0016576Y0047550D01*
X0006576Y0037550D01*
X0006576Y0047550D02*
X0016576Y0057550D01*
X0031576Y0057550D01*
X0026576Y0042550D02*
X0019076Y0042550D01*
X0021576Y0052550D02*
X0041576Y0052550D01*
X0051576Y0037550D02*
X0051576Y0077550D01*
X0026576Y0042550D02*
X0031576Y0037550D01*
X0021576Y0027550D02*
X0022201Y0026925D01*
X0022201Y0007550D01*
X0022576Y0007300D01*
X0036576Y0007300D01*
X0041326Y0007300D01*
X0051576Y0017550D01*
D17*
X0041576Y0052550D03*
X0031576Y0057550D03*
X0021576Y0052550D03*
M02*
